<svg width="23" height="20" viewBox="0 0 23 20" fill="none" xmlns="http://www.w3.org/2000/svg">
<path d="M6.61721 2.63196C6.32218 2.63196 6.09038 2.67411 5.92179 2.7584C5.76726 2.8427 5.65487 3.03235 5.58462 3.32738C5.52843 3.6224 5.50033 4.09304 5.50033 4.73928V6.80445C5.50033 7.33831 5.41604 7.80192 5.24745 8.19528C5.09292 8.5746 4.91028 8.88367 4.69955 9.1225C4.48882 9.36133 4.29214 9.54397 4.1095 9.67041C4.26404 9.78279 4.44667 9.9584 4.6574 10.1972C4.88218 10.422 5.07887 10.703 5.24745 11.0402C5.41604 11.3633 5.50033 11.7286 5.50033 12.136V14.6647C5.50033 15.2969 5.52843 15.7606 5.58462 16.0556C5.65487 16.3506 5.76726 16.5403 5.92179 16.6246C6.09038 16.7088 6.32218 16.751 6.61721 16.751H7.39692V19.3219H5.73214C5.33877 19.3219 4.9454 19.3149 4.55204 19.3008C4.17272 19.2868 3.8215 19.2095 3.49838 19.069C3.17526 18.9426 2.91535 18.6967 2.71867 18.3315C2.53604 17.9803 2.44472 17.4675 2.44472 16.7931V13.3161C2.44472 12.8946 2.3815 12.5012 2.25506 12.136C2.12862 11.7566 1.93896 11.4476 1.68609 11.2087C1.43321 10.9699 1.11711 10.8505 0.737793 10.8505V8.40601C1.11711 8.39196 1.43321 8.27255 1.68609 8.04777C1.93896 7.80894 2.12862 7.50689 2.25506 7.14162C2.3815 6.76231 2.44472 6.36192 2.44472 5.94045V2.61089C2.44472 1.93655 2.53604 1.42377 2.71867 1.07255C2.90131 0.721329 3.14716 0.475475 3.45623 0.334987C3.77935 0.194499 4.1376 0.117231 4.53096 0.103181C4.92433 0.0750839 5.32472 0.0610352 5.73214 0.0610352H7.39692V2.63196H6.61721ZM22.3286 9.86006C22.3286 11.293 22.153 12.6347 21.8018 13.885C21.4646 15.1354 21.0291 16.2452 20.4952 17.2146C19.9614 18.198 19.3924 19.0058 18.7883 19.638L16.3649 18.5211C16.9128 17.8889 17.4045 17.1444 17.84 16.2874C18.2755 15.4445 18.6197 14.4891 18.8726 13.4214C19.1255 12.3397 19.2519 11.1526 19.2519 9.86006C19.2519 8.56758 19.1255 7.38748 18.8726 6.31977C18.6197 5.23801 18.2755 4.27567 17.84 3.43274C17.4045 2.57577 16.9128 1.83821 16.3649 1.22006L18.7883 0.082108C19.3924 0.714305 19.9614 1.52211 20.4952 2.50552C21.0291 3.48894 21.4646 4.60582 21.8018 5.85616C22.153 7.09245 22.3286 8.42709 22.3286 9.86006Z" fill="#00D2DF"/>
</svg>
