<svg width="90" height="90" viewBox="0 0 90 90" fill="none" xmlns="http://www.w3.org/2000/svg">
<rect x="0.5" y="0.5" width="89" height="89" fill="#212121" stroke="#333333"/>
<g clip-path="url(#clip0_92433_807)">
<path d="M32.3259 38.1526H41.3792V38.8722H33.1558V44.2879H40.8889V45.0074H33.1558V50.9533H41.4735V51.6728H32.3259V38.1526ZM42.1903 38.1526H43.1522L47.4147 44.0985L51.7716 38.1525L57.6976 30.6L47.9617 44.7234L52.9787 51.6728H51.979L47.4147 45.3483L42.8315 51.6728H41.8507L46.9055 44.7233L42.1902 38.1526H42.1903ZM53.337 38.8722V38.1525H63.654V38.8721H58.901V51.6727H58.0711V38.8722H53.337ZM21 38.1525H22.0373L36.3417 59.5578L30.4305 51.6727L21.8676 39.1751L21.8299 51.6729H21V38.1525ZM63.5704 50.736C63.4008 50.736 63.2737 50.6047 63.2737 50.4349C63.2737 50.2652 63.4008 50.1337 63.5704 50.1337C63.7419 50.1337 63.8671 50.2651 63.8671 50.4349C63.8671 50.6046 63.7419 50.736 63.5704 50.736ZM64.3858 49.9438H64.8299C64.8359 50.1843 65.0115 50.346 65.2699 50.346C65.5585 50.346 65.722 50.1722 65.722 49.8468V47.7852H66.1742V49.8487C66.1742 50.4349 65.8351 50.7724 65.2739 50.7724C64.747 50.7724 64.3858 50.445 64.3858 49.9437V49.9438ZM66.7656 49.9175H67.2137C67.252 50.1944 67.5225 50.3702 67.9121 50.3702C68.2754 50.3702 68.5418 50.1822 68.5418 49.9235C68.5418 49.7013 68.3722 49.5679 67.9867 49.4769L67.6113 49.386C67.0844 49.2626 66.8443 49.008 66.8443 48.5795C66.8443 48.0602 67.2682 47.7145 67.904 47.7145C68.4953 47.7145 68.9273 48.0601 68.9536 48.5512H68.5135C68.4712 48.2824 68.237 48.1146 67.8979 48.1146C67.5407 48.1146 67.3026 48.2865 67.3026 48.5492C67.3026 48.7573 67.4558 48.8766 67.8353 48.9655L68.1562 49.0444C68.7537 49.1839 69 49.4264 69 49.8649C69 50.4228 68.5681 50.7724 67.8778 50.7724C67.2319 50.7724 66.7978 50.4389 66.7656 49.9174V49.9175Z" fill="#00DF5E"/>
</g>
<defs>
<clipPath id="clip0_92433_807">
<rect width="48" height="28.9688" fill="white" transform="translate(21 30.6)"/>
</clipPath>
</defs>
</svg>
