<svg width="90" height="90" viewBox="0 0 90 90" fill="none" xmlns="http://www.w3.org/2000/svg">
<rect x="0.5" y="0.5" width="89" height="89" fill="#212121" stroke="#333333"/>
<path d="M33 40.1875C34.5996 33.7713 38.6004 30.5625 45 30.5625C54.6 30.5625 55.8 37.7812 60.6 38.9843C63.8004 39.7868 66.6 38.5837 69 35.375C67.4004 41.7912 63.3996 45 57 45C47.4 45 46.2 37.7813 41.4 36.5782C38.1996 35.7757 35.4 36.9788 33 40.1875ZM21 54.625C22.5996 48.2088 26.6004 45 33 45C42.6 45 43.8 52.2188 48.6 53.4218C51.8004 54.2243 54.6 53.0213 57 49.8125C55.4004 56.2287 51.3996 59.4375 45 59.4375C35.4 59.4375 34.2 52.2188 29.4 51.0157C26.1996 50.2132 23.4 51.4162 21 54.625Z" fill="#00DF5E"/>
</svg>
